<mxfile host="app.diagrams.net" modified="2020-04-18T17:59:03.707Z" agent="5.0 (Windows)" etag="czu5vxYzBV9vn2sSzd6K" version="12.9.14" type="github">
  <diagram id="CAyznFhc1hbzrrDkQ1r9" name="Page-1">
    <mxGraphModel dx="1422" dy="769" grid="1" gridSize="10" guides="1" tooltips="1" connect="1" arrows="1" fold="1" page="1" pageScale="1" pageWidth="850" pageHeight="1100" math="0" shadow="0">
      <root>
        <mxCell id="0" />
        <mxCell id="1" parent="0" />
        <mxCell id="WL5FxgspxOFDFAreXaIk-4" style="edgeStyle=orthogonalEdgeStyle;rounded=0;orthogonalLoop=1;jettySize=auto;html=1;" edge="1" parent="1" source="WL5FxgspxOFDFAreXaIk-1" target="WL5FxgspxOFDFAreXaIk-3">
          <mxGeometry relative="1" as="geometry" />
        </mxCell>
        <mxCell id="WL5FxgspxOFDFAreXaIk-1" value="Start" style="ellipse;whiteSpace=wrap;html=1;" vertex="1" parent="1">
          <mxGeometry x="40" y="240" width="120" height="80" as="geometry" />
        </mxCell>
        <mxCell id="WL5FxgspxOFDFAreXaIk-3" value="" style="verticalLabelPosition=bottom;verticalAlign=top;html=1;shadow=0;dashed=0;strokeWidth=1;shape=mxgraph.android.phone2;strokeColor=#c0c0c0;" vertex="1" parent="1">
          <mxGeometry x="240" y="85" width="200" height="390" as="geometry" />
        </mxCell>
      </root>
    </mxGraphModel>
  </diagram>
</mxfile>
